/vscmnt/brussel_pixiu_data/_data_brussel/112/vsc11236/PredSimResults/SUBJ10mtu3D/weighted-expIG/worker_01.mot
version=1
nRows=4
nColumns=50
inDegrees=yes
endheader
                time	         pelvis_tilt	         pelvis_list	     pelvis_rotation	           pelvis_tx	           pelvis_ty	           pelvis_tz	       hip_flexion_r	     hip_adduction_r	      hip_rotation_r	        knee_angle_r	       ankle_angle_r	         mtp_angle_r	       hip_flexion_l	     hip_adduction_l	      hip_rotation_l	        knee_angle_l	       ankle_angle_l	         mtp_angle_l	    lumbar_extension	      lumbar_bending	     lumbar_rotation	 ercspn_r/activation	 intobl_r/activation	 extobl_r/activation	    abd_r/activation	    add_r/activation	hamstrings_r/activation	bifemsh_r/activation	glut_max_r/activation	iliopsoas_r/activation	rect_fem_r/activation	  vasti_r/activation	gastroc_r/activation	 soleus_r/activation	tib_ant_r/activation	 ercspn_l/activation	 intobl_l/activation	 extobl_l/activation	    abd_l/activation	    add_l/activation	hamstrings_l/activation	bifemsh_l/activation	glut_max_l/activation	iliopsoas_l/activation	rect_fem_l/activation	  vasti_l/activation	gastroc_l/activation	 soleus_l/activation	tib_ant_l/activation	
          0.99999992	        -11.90635174	          2.39635477	         -6.75654079	          1.15999991	          0.84260830	         -0.01941769	         24.54198902	          4.42902664	          1.03222541	        -56.63232841	        -17.78713380	         23.54145428	         28.09195866	          3.45554360	         10.55663489	         -3.64104382	          4.52888856	          2.85756987	         -1.20760624	         -3.62471741	         -4.65841669	          0.12152865	          0.01000191	          0.01311263	          0.04723928	          0.14465193	          0.06816442	          0.02795793	          0.01000412	          0.10267564	          0.41514711	          0.21982510	          0.16549597	          0.15180643	          0.01000313	          0.17786453	          0.04609884	          0.01185261	          0.15564487	          0.25527870	          0.20755992	          0.01003702	          0.03975097	          0.17547991	          0.15269062	          0.02125660	          0.01012551	          0.01447628	          0.30353803	
          1.01999992	        -11.97308510	          1.81947126	         -5.39118336	          1.18475282	          0.83512994	         -0.02038582	         22.69925613	          4.24817226	         -0.67279174	        -56.67947062	        -18.88403227	         27.46219258	         28.17056319	          3.65069126	         10.00739327	         -5.56861301	          4.33297114	          2.19680333	         -1.04785103	         -3.85266202	         -4.04961876	          0.13237785	          0.01000084	          0.01001351	          0.03543048	          0.12195731	          0.05112393	          0.02096999	          0.01000106	          0.09488018	          0.31136132	          0.16487200	          0.16527044	          0.12324462	          0.01000142	          0.13339940	          0.03457475	          0.01000284	          0.14975182	          0.19146028	          0.17681954	          0.11747460	          0.09049058	          0.13161024	          0.11451826	          0.01594274	          0.01336143	          0.01337632	          0.31501502	
          1.03999992	        -12.01245627	          1.22884865	         -3.92316606	          1.21057403	          0.82918277	         -0.02108291	         21.19134048	          4.07232717	         -2.66350536	        -57.06266645	        -20.43727603	         29.05290979	         27.83157552	          3.90980951	          9.85025996	         -8.03619933	          4.14573152	          1.69014604	         -0.70440677	         -4.18336641	         -3.47263725	          0.17143461	          0.02494743	          0.01001041	          0.02657410	          0.17703542	          0.03834929	          0.01572991	          0.02056435	          0.20526723	          0.23352188	          0.12365432	          0.12395613	          0.09243375	          0.01000138	          0.10005060	          0.02593130	          0.01000328	          0.21200868	          0.14359803	          0.13261669	          0.13019519	          0.20562848	          0.09870795	          0.08588896	          0.01195733	          0.01002168	          0.01003249	          0.34594905	
          1.05999991	        -12.03573649	          0.70801270	         -2.40266016	          1.23601996	          0.82662231	         -0.02144797	         20.18935182	          3.91669509	         -4.58388610	        -57.56668072	        -22.87663736	         27.82074563	         27.63610697	          4.26947127	         10.37819183	        -11.01395807	          5.38638924	          1.27917932	         -0.37280228	         -4.68382034	         -2.92072975	          0.20802926	          0.14310008	          0.01000336	          0.01993292	          0.13277781	          0.02896697	          0.01182962	          0.03004830	          0.34983755	          0.17514216	          0.09274085	          0.09296788	          0.06932544	          0.01000167	          0.12073411	          0.01944873	          0.01000278	          0.24793431	          0.20732568	          0.09946907	          0.09764977	          0.27749771	          0.07403119	          0.06441699	          0.01334042	          0.01002190	          0.01001836	          0.25946235	
